<?xml version="1.0" standalone="no"?>
<!DOCTYPE svg PUBLIC "-//W3C//DTD SVG 1.1//EN" "http://www.w3.org/Graphics/SVG/1.1/DTD/svg11.dtd" >
<svg xmlns="http://www.w3.org/2000/svg" xmlns:xlink="http://www.w3.org/1999/xlink" version="1.1">
<metadata>
Created by FontForge 20160407 at Thu Dec  8 02:01:22 2016
 By Jimmy Wärting
Copyright (c) 2008 by ShyFoundry. All rights reserved. Freeware for personal use only. To purchase a commercial license, please visit our site at http://www.shyfoundry.com.
</metadata>
<defs>
<font id="SFDigitalReadout-Medium" horiz-adv-x="751" >
  <font-face 
    font-family="SF Digital Readout"
    font-weight="550"
    font-stretch="normal"
    units-per-em="2048"
    panose-1="0 0 4 9 0 0 0 0 0 0"
    ascent="1638"
    descent="-410"
    x-height="1075"
    cap-height="1075"
    bbox="34 -340 1178 1621"
    underline-thickness="20"
    underline-position="-143"
    unicode-range="U+0020-20AC"
  />
<missing-glyph horiz-adv-x="1024" 
 />
    <glyph glyph-name=".notdef" horiz-adv-x="1024" 
 />
    <glyph glyph-name="space" unicode=" " 
 />
    <glyph glyph-name="dollar" unicode="$" 
d="M375 -135l-51 51v69h103v-69zM580 0h-409l-52 51l52 51h409l51 -51zM324 119v239l17 35v153l34 34l35 -34v-153l17 -35v-239h-103zM316 546h-145l-52 51l52 52h145l51 -52zM649 68l-35 34v154l-17 34v239l52 51l51 -51v-410zM102 614l-51 52v409l51 51l35 -34v-153
l17 -34v-239zM580 546h-145l-51 51l51 52h145l51 -52zM410 802v-153l-35 -35l-34 35v153l-17 34v239h103v-239zM580 1092h-409l-52 51l52 52h409l51 -52zM324 1212v68l51 51l52 -51v-68h-103z" />
    <glyph glyph-name="percent" unicode="%" 
d="M495 0l-51 51l51 51l51 -51zM427 68l-52 51l52 52l51 -52zM154 119v137l170 273v-136zM563 68l-51 51l51 52l51 -52zM495 137l-51 51l51 51l51 -51zM256 956l-51 51l51 51l51 -51zM188 1024l-51 51l51 51l51 -51zM427 666v136l170 273v-136zM324 1024l-51 51l51 51
l51 -51zM256 1092l-51 51l51 52l51 -52z" />
    <glyph glyph-name="ampersand" unicode="&#x26;" 
d="M580 0h-409l-52 51l52 51h409l51 -51zM137 256v-154l-35 -34l-51 51v410l51 51l52 -51v-239zM316 546h-145l-52 51l52 52h145l51 -52zM649 68l-35 34v154l-17 34v239l52 51l51 -51v-410zM102 614l-51 52v409l51 51l35 -34v-153l17 -34v-239zM580 1092h-409l-52 51l52 52
h409l51 -52z" />
    <glyph glyph-name="quotesingle" unicode="'" 
d="M375 990l-51 51v102l51 52l52 -52v-102z" />
    <glyph glyph-name="parenleft" unicode="(" 
d="M316 0h-145l-52 51l52 51h145l51 -51zM137 256v-154l-35 -34l-51 51v410l51 51l52 -51v-239zM102 614l-51 52v409l51 51l35 -34v-153l17 -34v-239zM316 1092h-145l-52 51l52 52h145l51 -52z" />
    <glyph glyph-name="parenright" unicode=")" 
d="M580 0h-145l-51 51l51 51h145l51 -51zM649 68l-35 34v154l-17 34v239l52 51l51 -51v-410zM649 614l-52 52v239l17 34v153l35 34l51 -51v-409zM580 1092h-145l-51 51l51 52h145l51 -52z" />
    <glyph glyph-name="asterisk" unicode="*" 
d="M154 119v137l170 273v-136zM324 119v239l17 35v153l34 34l35 -34v-153l17 -35v-239h-103zM427 393v136l170 -273v-137zM316 546h-145l-52 51l52 52h145l51 -52zM580 546h-145l-51 51l51 52h145l51 -52zM154 939v136l170 -273v-136zM410 802v-153l-35 -35l-34 35v153
l-17 34v239h103v-239zM427 666v136l170 273v-136z" />
    <glyph glyph-name="plus" unicode="+" 
d="M324 119v239l17 35v153l34 34l35 -34v-153l17 -35v-239h-103zM316 546h-145l-52 51l52 52h145l51 -52zM580 546h-145l-51 51l51 52h145l51 -52zM410 802v-153l-35 -35l-34 35v153l-17 34v239h103v-239z" />
    <glyph glyph-name="comma" unicode="," 
d="M375 -101l-51 52v100l51 51l52 -51v-100z" />
    <glyph glyph-name="hyphen" unicode="-" 
d="M316 546h-145l-52 51l52 52h145l51 -52zM580 546h-145l-51 51l51 52h145l51 -52z" />
    <glyph glyph-name="period" unicode="." 
d="M375 0l-51 51l51 51l52 -51z" />
    <glyph glyph-name="slash" unicode="/" 
d="M154 119v137l170 273v-136zM427 666v136l170 273v-136z" />
    <glyph glyph-name="zero" unicode="0" 
d="M580 0h-409l-52 51l52 51h409l51 -51zM137 256v-154l-35 -34l-51 51v410l51 51l52 -51v-239zM649 68l-35 34v154l-17 34v239l52 51l51 -51v-410zM102 614l-51 52v409l51 51l35 -34v-153l17 -34v-239zM649 614l-52 52v239l17 34v153l35 34l51 -51v-409zM580 1092h-409
l-52 51l52 52h409l51 -52z" />
    <glyph glyph-name="one" unicode="1" 
d="M649 68l-35 34v154l-17 34v239l52 51l51 -51v-410zM649 614l-52 52v239l17 34v153l35 34l51 -51v-409z" />
    <glyph glyph-name="two" unicode="2" 
d="M580 0h-409l-52 51l52 51h409l51 -51zM137 256v-154l-35 -34l-51 51v410l51 51l52 -51v-239zM316 546h-145l-52 51l52 52h145l51 -52zM580 546h-145l-51 51l51 52h145l51 -52zM649 614l-52 52v239l17 34v153l35 34l51 -51v-409zM580 1092h-409l-52 51l52 52h409l51 -52z
" />
    <glyph glyph-name="three" unicode="3" 
d="M580 0h-409l-52 51l52 51h409l51 -51zM316 546h-145l-52 51l52 52h145l51 -52zM649 68l-35 34v154l-17 34v239l52 51l51 -51v-410zM580 546h-145l-51 51l51 52h145l51 -52zM649 614l-52 52v239l17 34v153l35 34l51 -51v-409zM580 1092h-409l-52 51l52 52h409l51 -52z" />
    <glyph glyph-name="four" unicode="4" 
d="M316 546h-145l-52 51l52 52h145l51 -52zM649 68l-35 34v154l-17 34v239l52 51l51 -51v-410zM102 614l-51 52v409l51 51l35 -34v-153l17 -34v-239zM580 546h-145l-51 51l51 52h145l51 -52zM649 614l-52 52v239l17 34v153l35 34l51 -51v-409z" />
    <glyph glyph-name="five" unicode="5" 
d="M580 0h-409l-52 51l52 51h409l51 -51zM316 546h-145l-52 51l52 52h145l51 -52zM649 68l-35 34v154l-17 34v239l52 51l51 -51v-410zM102 614l-51 52v409l51 51l35 -34v-153l17 -34v-239zM580 546h-145l-51 51l51 52h145l51 -52zM580 1092h-409l-52 51l52 52h409l51 -52z
" />
    <glyph glyph-name="six" unicode="6" 
d="M580 0h-409l-52 51l52 51h409l51 -51zM137 256v-154l-35 -34l-51 51v410l51 51l52 -51v-239zM316 546h-145l-52 51l52 52h145l51 -52zM649 68l-35 34v154l-17 34v239l52 51l51 -51v-410zM102 614l-51 52v409l51 51l35 -34v-153l17 -34v-239zM580 546h-145l-51 51l51 52
h145l51 -52zM580 1092h-409l-52 51l52 52h409l51 -52z" />
    <glyph glyph-name="seven" unicode="7" 
d="M649 68l-35 34v154l-17 34v239l52 51l51 -51v-410zM649 614l-52 52v239l17 34v153l35 34l51 -51v-409zM580 1092h-409l-52 51l52 52h409l51 -52z" />
    <glyph glyph-name="eight" unicode="8" 
d="M580 0h-409l-52 51l52 51h409l51 -51zM137 256v-154l-35 -34l-51 51v410l51 51l52 -51v-239zM316 546h-145l-52 51l52 52h145l51 -52zM649 68l-35 34v154l-17 34v239l52 51l51 -51v-410zM102 614l-51 52v409l51 51l35 -34v-153l17 -34v-239zM580 546h-145l-51 51l51 52
h145l51 -52zM649 614l-52 52v239l17 34v153l35 34l51 -51v-409zM580 1092h-409l-52 51l52 52h409l51 -52z" />
    <glyph glyph-name="nine" unicode="9" 
d="M580 0h-409l-52 51l52 51h409l51 -51zM316 546h-145l-52 51l52 52h145l51 -52zM649 68l-35 34v154l-17 34v239l52 51l51 -51v-410zM102 614l-51 52v409l51 51l35 -34v-153l17 -34v-239zM580 546h-145l-51 51l51 52h145l51 -52zM649 614l-52 52v239l17 34v153l35 34
l51 -51v-409zM580 1092h-409l-52 51l52 52h409l51 -52z" />
    <glyph glyph-name="colon" unicode=":" 
d="M375 0l-51 51l51 51l52 -51zM375 478l-51 51l51 51l52 -51z" />
    <glyph glyph-name="semicolon" unicode=";" 
d="M375 -101l-51 52v100l51 51l52 -51v-100zM375 478l-51 51l51 51l52 -51z" />
    <glyph glyph-name="less" unicode="&#x3c;" 
d="M290 393v136l171 -273v-137zM290 666v136l171 273v-136z" />
    <glyph glyph-name="equal" unicode="=" 
d="M316 452h-145l-52 51l52 52h145l51 -52zM316 640h-145l-52 51l52 51h145l51 -51zM580 452h-145l-51 51l51 52h145l51 -52zM580 640h-145l-51 51l51 51h145l51 -51z" />
    <glyph glyph-name="greater" unicode="&#x3e;" 
d="M290 119v137l171 273v-136zM290 939v136l171 -273v-136z" />
    <glyph glyph-name="question" unicode="?" 
d="M375 0l-51 51v68h103v-68zM324 256v102l17 35v153l34 34l35 -34v-153l17 -35v-102h-103zM580 546h-145l-51 51l51 52h145l51 -52zM649 614l-52 52v239l17 34v153l35 34l51 -51v-409zM580 1092h-409l-52 51l52 52h409l51 -52z" />
    <glyph glyph-name="at" unicode="@" 
d="M580 0h-409l-52 51l52 51h409l51 -51zM137 256v-154l-35 -34l-51 51v410l51 51l52 -51v-239zM102 614l-51 52v409l51 51l35 -34v-153l17 -34v-239zM580 546h-145l-51 51l51 52h145l51 -52zM410 802v-153l-35 -35l-34 35v153l-17 34v239h103v-239zM649 614l-52 52v239
l17 34v153l35 34l51 -51v-409zM580 1092h-409l-52 51l52 52h409l51 -52z" />
    <glyph glyph-name="A" unicode="A" 
d="M137 256v-154l-35 -34l-51 51v410l51 51l52 -51v-239zM316 546h-145l-52 51l52 52h145l51 -52zM649 68l-35 34v154l-17 34v239l52 51l51 -51v-410zM102 614l-51 52v409l51 51l35 -34v-153l17 -34v-239zM580 546h-145l-51 51l51 52h145l51 -52zM649 614l-52 52v239l17 34
v153l35 34l51 -51v-409zM580 1092h-409l-52 51l52 52h409l51 -52z" />
    <glyph glyph-name="B" unicode="B" 
d="M580 0h-409l-52 51l52 51h409l51 -51zM324 119v239l17 35v153l34 34l35 -34v-153l17 -35v-239h-103zM649 68l-35 34v154l-17 34v239l52 51l51 -51v-410zM580 546h-145l-51 51l51 52h145l51 -52zM410 802v-153l-35 -35l-34 35v153l-17 34v239h103v-239zM649 614l-52 52
v239l17 34v153l35 34l51 -51v-409zM580 1092h-409l-52 51l52 52h409l51 -52z" />
    <glyph glyph-name="C" unicode="C" 
d="M580 0h-409l-52 51l52 51h409l51 -51zM137 256v-154l-35 -34l-51 51v410l51 51l52 -51v-239zM102 614l-51 52v409l51 51l35 -34v-153l17 -34v-239zM580 1092h-409l-52 51l52 52h409l51 -52z" />
    <glyph glyph-name="D" unicode="D" 
d="M580 0h-409l-52 51l52 51h409l51 -51zM324 119v239l17 35v153l34 34l35 -34v-153l17 -35v-239h-103zM649 68l-35 34v154l-17 34v239l52 51l51 -51v-410zM410 802v-153l-35 -35l-34 35v153l-17 34v239h103v-239zM649 614l-52 52v239l17 34v153l35 34l51 -51v-409z
M580 1092h-409l-52 51l52 52h409l51 -52z" />
    <glyph glyph-name="E" unicode="E" 
d="M580 0h-409l-52 51l52 51h409l51 -51zM137 256v-154l-35 -34l-51 51v410l51 51l52 -51v-239zM316 546h-145l-52 51l52 52h145l51 -52zM102 614l-51 52v409l51 51l35 -34v-153l17 -34v-239zM580 546h-145l-51 51l51 52h145l51 -52zM580 1092h-409l-52 51l52 52h409l51 -52
z" />
    <glyph glyph-name="F" unicode="F" 
d="M137 256v-154l-35 -34l-51 51v410l51 51l52 -51v-239zM316 546h-145l-52 51l52 52h145l51 -52zM102 614l-51 52v409l51 51l35 -34v-153l17 -34v-239zM580 546h-145l-51 51l51 52h145l51 -52zM580 1092h-409l-52 51l52 52h409l51 -52z" />
    <glyph glyph-name="G" unicode="G" 
d="M580 0h-409l-52 51l52 51h409l51 -51zM137 256v-154l-35 -34l-51 51v410l51 51l52 -51v-239zM649 68l-35 34v154l-17 34v239l52 51l51 -51v-410zM102 614l-51 52v409l51 51l35 -34v-153l17 -34v-239zM580 546h-145l-51 51l51 52h145l51 -52zM580 1092h-409l-52 51l52 52
h409l51 -52z" />
    <glyph glyph-name="H" unicode="H" 
d="M137 256v-154l-35 -34l-51 51v410l51 51l52 -51v-239zM316 546h-145l-52 51l52 52h145l51 -52zM649 68l-35 34v154l-17 34v239l52 51l51 -51v-410zM102 614l-51 52v409l51 51l35 -34v-153l17 -34v-239zM580 546h-145l-51 51l51 52h145l51 -52zM649 614l-52 52v239l17 34
v153l35 34l51 -51v-409z" />
    <glyph glyph-name="I" unicode="I" 
d="M324 119v239l17 35v153l34 34l35 -34v-153l17 -35v-239h-103zM410 802v-153l-35 -35l-34 35v153l-17 34v239h103v-239z" />
    <glyph glyph-name="J" unicode="J" 
d="M580 0h-409l-52 51l52 51h409l51 -51zM137 256v-154l-35 -34l-51 51v410l51 51l52 -51v-239zM649 68l-35 34v154l-17 34v239l52 51l51 -51v-410zM649 614l-52 52v239l17 34v153l35 34l51 -51v-409z" />
    <glyph glyph-name="K" unicode="K" 
d="M137 256v-154l-35 -34l-51 51v410l51 51l52 -51v-239zM427 393v136l170 -273v-137zM316 546h-145l-52 51l52 52h145l51 -52zM102 614l-51 52v409l51 51l35 -34v-153l17 -34v-239zM427 666v136l170 273v-136z" />
    <glyph glyph-name="L" unicode="L" 
d="M580 0h-409l-52 51l52 51h409l51 -51zM137 256v-154l-35 -34l-51 51v410l51 51l52 -51v-239zM102 614l-51 52v409l51 51l35 -34v-153l17 -34v-239z" />
    <glyph glyph-name="M" unicode="M" 
d="M137 256v-154l-35 -34l-51 51v410l51 51l52 -51v-239zM324 119v239l17 35v153l34 34l35 -34v-153l17 -35v-239h-103zM649 68l-35 34v154l-17 34v239l52 51l51 -51v-410zM102 614l-51 52v409l51 51l35 -34v-153l17 -34v-239zM154 939v136l170 -273v-136zM427 666v136
l170 273v-136zM649 614l-52 52v239l17 34v153l35 34l51 -51v-409z" />
    <glyph glyph-name="N" unicode="N" 
d="M137 256v-154l-35 -34l-51 51v410l51 51l52 -51v-239zM649 68l-35 34v154l-17 34v239l52 51l51 -51v-410zM102 614l-51 52v409l51 51l35 -34v-153l17 -34v-239zM649 614l-52 52v239l17 34v153l35 34l51 -51v-409zM580 1092h-409l-52 51l52 52h409l51 -52z" />
    <glyph glyph-name="O" unicode="O" 
d="M580 0h-409l-52 51l52 51h409l51 -51zM137 256v-154l-35 -34l-51 51v410l51 51l52 -51v-239zM649 68l-35 34v154l-17 34v239l52 51l51 -51v-410zM102 614l-51 52v409l51 51l35 -34v-153l17 -34v-239zM649 614l-52 52v239l17 34v153l35 34l51 -51v-409zM580 1092h-409
l-52 51l52 52h409l51 -52z" />
    <glyph glyph-name="P" unicode="P" 
d="M137 256v-154l-35 -34l-51 51v410l51 51l52 -51v-239zM316 546h-145l-52 51l52 52h145l51 -52zM102 614l-51 52v409l51 51l35 -34v-153l17 -34v-239zM580 546h-145l-51 51l51 52h145l51 -52zM649 614l-52 52v239l17 34v153l35 34l51 -51v-409zM580 1092h-409l-52 51
l52 52h409l51 -52z" />
    <glyph glyph-name="Q" unicode="Q" 
d="M580 0h-409l-52 51l52 51h409l51 -51zM137 256v-154l-35 -34l-51 51v410l51 51l52 -51v-239zM427 393v136l170 -273v-137zM649 68l-35 34v154l-17 34v239l52 51l51 -51v-410zM102 614l-51 52v409l51 51l35 -34v-153l17 -34v-239zM649 614l-52 52v239l17 34v153l35 34
l51 -51v-409zM580 1092h-409l-52 51l52 52h409l51 -52z" />
    <glyph glyph-name="R" unicode="R" 
d="M137 256v-154l-35 -34l-51 51v410l51 51l52 -51v-239zM427 393v136l170 -273v-137zM316 546h-145l-52 51l52 52h145l51 -52zM102 614l-51 52v409l51 51l35 -34v-153l17 -34v-239zM580 546h-145l-51 51l51 52h145l51 -52zM649 614l-52 52v239l17 34v153l35 34l51 -51v-409
zM580 1092h-409l-52 51l52 52h409l51 -52z" />
    <glyph glyph-name="S" unicode="S" 
d="M580 0h-409l-52 51l52 51h409l51 -51zM316 546h-145l-52 51l52 52h145l51 -52zM649 68l-35 34v154l-17 34v239l52 51l51 -51v-410zM102 614l-51 52v409l51 51l35 -34v-153l17 -34v-239zM580 546h-145l-51 51l51 52h145l51 -52zM580 1092h-409l-52 51l52 52h409l51 -52z
" />
    <glyph glyph-name="T" unicode="T" 
d="M324 119v239l17 35v153l34 34l35 -34v-153l17 -35v-239h-103zM410 802v-153l-35 -35l-34 35v153l-17 34v239h103v-239zM580 1092h-409l-52 51l52 52h409l51 -52z" />
    <glyph glyph-name="U" unicode="U" 
d="M580 0h-409l-52 51l52 51h409l51 -51zM137 256v-154l-35 -34l-51 51v410l51 51l52 -51v-239zM649 68l-35 34v154l-17 34v239l52 51l51 -51v-410zM102 614l-51 52v409l51 51l35 -34v-153l17 -34v-239zM649 614l-52 52v239l17 34v153l35 34l51 -51v-409z" />
    <glyph glyph-name="V" unicode="V" 
d="M427 393v136l170 -273v-137zM649 68l-35 34v154l-17 34v239l52 51l51 -51v-410zM154 939v136l170 -273v-136zM649 614l-52 52v239l17 34v153l35 34l51 -51v-409z" />
    <glyph glyph-name="W" unicode="W" 
d="M137 256v-154l-35 -34l-51 51v410l51 51l52 -51v-239zM154 119v137l170 273v-136zM427 393v136l170 -273v-137zM649 68l-35 34v154l-17 34v239l52 51l51 -51v-410zM102 614l-51 52v409l51 51l35 -34v-153l17 -34v-239zM410 802v-153l-35 -35l-34 35v153l-17 34v239h103
v-239zM649 614l-52 52v239l17 34v153l35 34l51 -51v-409z" />
    <glyph glyph-name="X" unicode="X" 
d="M154 119v137l170 273v-136zM427 393v136l170 -273v-137zM154 939v136l170 -273v-136zM427 666v136l170 273v-136z" />
    <glyph glyph-name="Y" unicode="Y" 
d="M324 119v239l17 35v153l34 34l35 -34v-153l17 -35v-239h-103zM316 546h-145l-52 51l52 52h145l51 -52zM102 614l-51 52v409l51 51l35 -34v-153l17 -34v-239zM580 546h-145l-51 51l51 52h145l51 -52zM649 614l-52 52v239l17 34v153l35 34l51 -51v-409z" />
    <glyph glyph-name="Z" unicode="Z" 
d="M580 0h-409l-52 51l52 51h409l51 -51zM154 119v137l170 273v-136zM427 666v136l170 273v-136zM580 1092h-409l-52 51l52 52h409l51 -52z" />
    <glyph glyph-name="bracketleft" unicode="[" 
d="M316 0h-145l-52 51l52 51h145l51 -51zM137 256v-154l-35 -34l-51 51v410l51 51l52 -51v-239zM102 614l-51 52v409l51 51l35 -34v-153l17 -34v-239zM316 1092h-145l-52 51l52 52h145l51 -52z" />
    <glyph glyph-name="backslash" unicode="\" 
d="M427 393v136l170 -273v-137zM154 939v136l170 -273v-136z" />
    <glyph glyph-name="bracketright" unicode="]" 
d="M580 0h-145l-51 51l51 51h145l51 -51zM649 68l-35 34v154l-17 34v239l52 51l51 -51v-410zM649 614l-52 52v239l17 34v153l35 34l51 -51v-409zM580 1092h-145l-51 51l51 52h145l51 -52z" />
    <glyph glyph-name="asciicircum" unicode="^" 
d="M375 1058l-170 -205v137l170 205l171 -205v-137z" />
    <glyph glyph-name="underscore" unicode="_" 
d="M580 0h-409l-52 51l52 51h409l51 -51z" />
    <glyph glyph-name="grave" unicode="`" 
d="M290 1485v136l171 -204v-137z" />
    <glyph glyph-name="a" unicode="a" 
d="M137 256v-154l-35 -34l-51 51v410l51 51l52 -51v-239zM316 546h-145l-52 51l52 52h145l51 -52zM649 68l-35 34v154l-17 34v239l52 51l51 -51v-410zM102 614l-51 52v409l51 51l35 -34v-153l17 -34v-239zM580 546h-145l-51 51l51 52h145l51 -52zM649 614l-52 52v239l17 34
v153l35 34l51 -51v-409zM580 1092h-409l-52 51l52 52h409l51 -52z" />
    <glyph glyph-name="b" unicode="b" 
d="M580 0h-409l-52 51l52 51h409l51 -51zM324 119v239l17 35v153l34 34l35 -34v-153l17 -35v-239h-103zM649 68l-35 34v154l-17 34v239l52 51l51 -51v-410zM580 546h-145l-51 51l51 52h145l51 -52zM410 802v-153l-35 -35l-34 35v153l-17 34v239h103v-239zM649 614l-52 52
v239l17 34v153l35 34l51 -51v-409zM580 1092h-409l-52 51l52 52h409l51 -52z" />
    <glyph glyph-name="c" unicode="c" 
d="M580 0h-409l-52 51l52 51h409l51 -51zM137 256v-154l-35 -34l-51 51v410l51 51l52 -51v-239zM102 614l-51 52v409l51 51l35 -34v-153l17 -34v-239zM580 1092h-409l-52 51l52 52h409l51 -52z" />
    <glyph glyph-name="d" unicode="d" 
d="M580 0h-409l-52 51l52 51h409l51 -51zM324 119v239l17 35v153l34 34l35 -34v-153l17 -35v-239h-103zM649 68l-35 34v154l-17 34v239l52 51l51 -51v-410zM410 802v-153l-35 -35l-34 35v153l-17 34v239h103v-239zM649 614l-52 52v239l17 34v153l35 34l51 -51v-409z
M580 1092h-409l-52 51l52 52h409l51 -52z" />
    <glyph glyph-name="e" unicode="e" 
d="M580 0h-409l-52 51l52 51h409l51 -51zM137 256v-154l-35 -34l-51 51v410l51 51l52 -51v-239zM316 546h-145l-52 51l52 52h145l51 -52zM102 614l-51 52v409l51 51l35 -34v-153l17 -34v-239zM580 546h-145l-51 51l51 52h145l51 -52zM580 1092h-409l-52 51l52 52h409l51 -52
z" />
    <glyph glyph-name="f" unicode="f" 
d="M137 256v-154l-35 -34l-51 51v410l51 51l52 -51v-239zM316 546h-145l-52 51l52 52h145l51 -52zM102 614l-51 52v409l51 51l35 -34v-153l17 -34v-239zM580 546h-145l-51 51l51 52h145l51 -52zM580 1092h-409l-52 51l52 52h409l51 -52z" />
    <glyph glyph-name="g" unicode="g" 
d="M580 0h-409l-52 51l52 51h409l51 -51zM137 256v-154l-35 -34l-51 51v410l51 51l52 -51v-239zM649 68l-35 34v154l-17 34v239l52 51l51 -51v-410zM102 614l-51 52v409l51 51l35 -34v-153l17 -34v-239zM580 546h-145l-51 51l51 52h145l51 -52zM580 1092h-409l-52 51l52 52
h409l51 -52z" />
    <glyph glyph-name="h" unicode="h" 
d="M137 256v-154l-35 -34l-51 51v410l51 51l52 -51v-239zM316 546h-145l-52 51l52 52h145l51 -52zM649 68l-35 34v154l-17 34v239l52 51l51 -51v-410zM102 614l-51 52v409l51 51l35 -34v-153l17 -34v-239zM580 546h-145l-51 51l51 52h145l51 -52zM649 614l-52 52v239l17 34
v153l35 34l51 -51v-409z" />
    <glyph glyph-name="i" unicode="i" 
d="M324 119v239l17 35v153l34 34l35 -34v-153l17 -35v-239h-103zM410 802v-153l-35 -35l-34 35v153l-17 34v239h103v-239z" />
    <glyph glyph-name="j" unicode="j" 
d="M580 0h-409l-52 51l52 51h409l51 -51zM137 256v-154l-35 -34l-51 51v410l51 51l52 -51v-239zM649 68l-35 34v154l-17 34v239l52 51l51 -51v-410zM649 614l-52 52v239l17 34v153l35 34l51 -51v-409z" />
    <glyph glyph-name="k" unicode="k" 
d="M137 256v-154l-35 -34l-51 51v410l51 51l52 -51v-239zM427 393v136l170 -273v-137zM316 546h-145l-52 51l52 52h145l51 -52zM102 614l-51 52v409l51 51l35 -34v-153l17 -34v-239zM427 666v136l170 273v-136z" />
    <glyph glyph-name="l" unicode="l" 
d="M580 0h-409l-52 51l52 51h409l51 -51zM137 256v-154l-35 -34l-51 51v410l51 51l52 -51v-239zM102 614l-51 52v409l51 51l35 -34v-153l17 -34v-239z" />
    <glyph glyph-name="m" unicode="m" 
d="M137 256v-154l-35 -34l-51 51v410l51 51l52 -51v-239zM324 119v239l17 35v153l34 34l35 -34v-153l17 -35v-239h-103zM649 68l-35 34v154l-17 34v239l52 51l51 -51v-410zM102 614l-51 52v409l51 51l35 -34v-153l17 -34v-239zM154 939v136l170 -273v-136zM427 666v136
l170 273v-136zM649 614l-52 52v239l17 34v153l35 34l51 -51v-409z" />
    <glyph glyph-name="n" unicode="n" 
d="M137 256v-154l-35 -34l-51 51v410l51 51l52 -51v-239zM649 68l-35 34v154l-17 34v239l52 51l51 -51v-410zM102 614l-51 52v409l51 51l35 -34v-153l17 -34v-239zM649 614l-52 52v239l17 34v153l35 34l51 -51v-409zM580 1092h-409l-52 51l52 52h409l51 -52z" />
    <glyph glyph-name="o" unicode="o" 
d="M580 0h-409l-52 51l52 51h409l51 -51zM137 256v-154l-35 -34l-51 51v410l51 51l52 -51v-239zM649 68l-35 34v154l-17 34v239l52 51l51 -51v-410zM102 614l-51 52v409l51 51l35 -34v-153l17 -34v-239zM649 614l-52 52v239l17 34v153l35 34l51 -51v-409zM580 1092h-409
l-52 51l52 52h409l51 -52z" />
    <glyph glyph-name="p" unicode="p" 
d="M137 256v-154l-35 -34l-51 51v410l51 51l52 -51v-239zM316 546h-145l-52 51l52 52h145l51 -52zM102 614l-51 52v409l51 51l35 -34v-153l17 -34v-239zM580 546h-145l-51 51l51 52h145l51 -52zM649 614l-52 52v239l17 34v153l35 34l51 -51v-409zM580 1092h-409l-52 51
l52 52h409l51 -52z" />
    <glyph glyph-name="q" unicode="q" 
d="M580 0h-409l-52 51l52 51h409l51 -51zM137 256v-154l-35 -34l-51 51v410l51 51l52 -51v-239zM427 393v136l170 -273v-137zM649 68l-35 34v154l-17 34v239l52 51l51 -51v-410zM102 614l-51 52v409l51 51l35 -34v-153l17 -34v-239zM649 614l-52 52v239l17 34v153l35 34
l51 -51v-409zM580 1092h-409l-52 51l52 52h409l51 -52z" />
    <glyph glyph-name="r" unicode="r" 
d="M137 256v-154l-35 -34l-51 51v410l51 51l52 -51v-239zM427 393v136l170 -273v-137zM316 546h-145l-52 51l52 52h145l51 -52zM102 614l-51 52v409l51 51l35 -34v-153l17 -34v-239zM580 546h-145l-51 51l51 52h145l51 -52zM649 614l-52 52v239l17 34v153l35 34l51 -51v-409
zM580 1092h-409l-52 51l52 52h409l51 -52z" />
    <glyph glyph-name="s" unicode="s" 
d="M580 0h-409l-52 51l52 51h409l51 -51zM316 546h-145l-52 51l52 52h145l51 -52zM649 68l-35 34v154l-17 34v239l52 51l51 -51v-410zM102 614l-51 52v409l51 51l35 -34v-153l17 -34v-239zM580 546h-145l-51 51l51 52h145l51 -52zM580 1092h-409l-52 51l52 52h409l51 -52z
" />
    <glyph glyph-name="t" unicode="t" 
d="M324 119v239l17 35v153l34 34l35 -34v-153l17 -35v-239h-103zM410 802v-153l-35 -35l-34 35v153l-17 34v239h103v-239zM580 1092h-409l-52 51l52 52h409l51 -52z" />
    <glyph glyph-name="u" unicode="u" 
d="M580 0h-409l-52 51l52 51h409l51 -51zM137 256v-154l-35 -34l-51 51v410l51 51l52 -51v-239zM649 68l-35 34v154l-17 34v239l52 51l51 -51v-410zM102 614l-51 52v409l51 51l35 -34v-153l17 -34v-239zM649 614l-52 52v239l17 34v153l35 34l51 -51v-409z" />
    <glyph glyph-name="v" unicode="v" 
d="M427 393v136l170 -273v-137zM649 68l-35 34v154l-17 34v239l52 51l51 -51v-410zM154 939v136l170 -273v-136zM649 614l-52 52v239l17 34v153l35 34l51 -51v-409z" />
    <glyph glyph-name="w" unicode="w" 
d="M137 256v-154l-35 -34l-51 51v410l51 51l52 -51v-239zM154 119v137l170 273v-136zM427 393v136l170 -273v-137zM649 68l-35 34v154l-17 34v239l52 51l51 -51v-410zM102 614l-51 52v409l51 51l35 -34v-153l17 -34v-239zM410 802v-153l-35 -35l-34 35v153l-17 34v239h103
v-239zM649 614l-52 52v239l17 34v153l35 34l51 -51v-409z" />
    <glyph glyph-name="x" unicode="x" 
d="M154 119v137l170 273v-136zM427 393v136l170 -273v-137zM154 939v136l170 -273v-136zM427 666v136l170 273v-136z" />
    <glyph glyph-name="y" unicode="y" 
d="M324 119v239l17 35v153l34 34l35 -34v-153l17 -35v-239h-103zM316 546h-145l-52 51l52 52h145l51 -52zM102 614l-51 52v409l51 51l35 -34v-153l17 -34v-239zM580 546h-145l-51 51l51 52h145l51 -52zM649 614l-52 52v239l17 34v153l35 34l51 -51v-409z" />
    <glyph glyph-name="z" unicode="z" 
d="M580 0h-409l-52 51l52 51h409l51 -51zM154 119v137l170 273v-136zM427 666v136l170 273v-136zM580 1092h-409l-52 51l52 52h409l51 -52z" />
    <glyph glyph-name="braceleft" unicode="{" 
d="M316 0h-145l-52 51l52 51h145l51 -51zM137 256v-154l-35 -34l-51 51v410l51 51l52 -51v-239zM102 614l-51 52v409l51 51l35 -34v-153l17 -34v-239zM316 1092h-145l-52 51l52 52h145l51 -52z" />
    <glyph glyph-name="bar" unicode="|" horiz-adv-x="205" 
d="M51 119v239l17 35v153l34 34l35 -34v-153l17 -35v-239h-103zM137 802v-153l-35 -35l-34 35v153l-17 34v239h103v-239z" />
    <glyph glyph-name="braceright" unicode="}" 
d="M580 0h-145l-51 51l51 51h145l51 -51zM649 68l-35 34v154l-17 34v239l52 51l51 -51v-410zM649 614l-52 52v239l17 34v153l35 34l51 -51v-409zM580 1092h-145l-51 51l51 52h145l51 -52z" />
    <glyph glyph-name="asciitilde" unicode="~" 
d="M273 1024l-51 51l51 51l51 -51zM410 1024l-52 51l52 51l51 -51zM341 1092l-51 51l51 52l52 -52zM478 1092l-51 51l51 52l51 -52z" />
    <glyph glyph-name="Adieresis" unicode="&#xc4;" 
d="M137 256v-154l-35 -34l-51 51v410l51 51l52 -51v-239zM316 546h-145l-52 51l52 52h145l51 -52zM649 68l-35 34v154l-17 34v239l52 51l51 -51v-410zM102 614l-51 52v409l51 51l35 -34v-153l17 -34v-239zM580 546h-145l-51 51l51 52h145l51 -52zM649 614l-52 52v239l17 34
v153l35 34l51 -51v-409zM580 1092h-409l-52 51l52 52h409l51 -52zM256 1280l-51 51l51 51l51 -51zM495 1280l-51 51l51 51l51 -51z" />
    <glyph glyph-name="Aring" unicode="&#xc5;" 
d="M375 1297l-51 51l51 51l52 -51zM307 1365l-51 52l51 51l51 -51zM444 1365l-51 52l51 51l51 -51zM375 1434l-51 51l51 51l52 -51zM137 256v-154l-35 -34l-51 51v410l51 51l52 -51v-239zM316 546h-145l-52 51l52 52h145l51 -52zM649 68l-35 34v154l-17 34v239l52 51l51 -51
v-410zM102 614l-51 52v409l51 51l35 -34v-153l17 -34v-239zM580 546h-145l-51 51l51 52h145l51 -52zM649 614l-52 52v239l17 34v153l35 34l51 -51v-409zM580 1092h-409l-52 51l52 52h409l51 -52z" />
    <glyph glyph-name="Eacute" unicode="&#xc9;" 
d="M580 0h-409l-52 51l52 51h409l51 -51zM137 256v-154l-35 -34l-51 51v410l51 51l52 -51v-239zM316 546h-145l-52 51l52 52h145l51 -52zM102 614l-51 52v409l51 51l35 -34v-153l17 -34v-239zM580 546h-145l-51 51l51 52h145l51 -52zM580 1092h-409l-52 51l52 52h409l51 -52
zM290 1280v137l171 204v-136z" />
    <glyph glyph-name="Ntilde" unicode="&#xd1;" 
d="M137 256v-154l-35 -34l-51 51v410l51 51l52 -51v-239zM649 68l-35 34v154l-17 34v239l52 51l51 -51v-410zM102 614l-51 52v409l51 51l35 -34v-153l17 -34v-239zM649 614l-52 52v239l17 34v153l35 34l51 -51v-409zM580 1092h-409l-52 51l52 52h409l51 -52zM273 1280
l-51 51l51 51l51 -51zM410 1280l-52 51l52 51l51 -51zM341 1348l-51 51l51 52l52 -52zM478 1348l-51 51l51 52l51 -52z" />
    <glyph glyph-name="Odieresis" unicode="&#xd6;" 
d="M580 0h-409l-52 51l52 51h409l51 -51zM137 256v-154l-35 -34l-51 51v410l51 51l52 -51v-239zM649 68l-35 34v154l-17 34v239l52 51l51 -51v-410zM102 614l-51 52v409l51 51l35 -34v-153l17 -34v-239zM649 614l-52 52v239l17 34v153l35 34l51 -51v-409zM580 1092h-409
l-52 51l52 52h409l51 -52zM256 1280l-51 51l51 51l51 -51zM495 1280l-51 51l51 51l51 -51z" />
    <glyph glyph-name="Udieresis" unicode="&#xdc;" 
d="M256 1280l-51 51l51 51l51 -51zM495 1280l-51 51l51 51l51 -51zM580 0h-409l-52 51l52 51h409l51 -51zM137 256v-154l-35 -34l-51 51v410l51 51l52 -51v-239zM649 68l-35 34v154l-17 34v239l52 51l51 -51v-410zM102 614l-51 52v409l51 51l35 -34v-153l17 -34v-239z
M649 614l-52 52v239l17 34v153l35 34l51 -51v-409z" />
    <glyph glyph-name="aacute" unicode="&#xe1;" 
d="M137 256v-154l-35 -34l-51 51v410l51 51l52 -51v-239zM316 546h-145l-52 51l52 52h145l51 -52zM649 68l-35 34v154l-17 34v239l52 51l51 -51v-410zM102 614l-51 52v409l51 51l35 -34v-153l17 -34v-239zM580 546h-145l-51 51l51 52h145l51 -52zM649 614l-52 52v239l17 34
v153l35 34l51 -51v-409zM580 1092h-409l-52 51l52 52h409l51 -52zM290 1280v137l171 204v-136z" />
    <glyph glyph-name="agrave" unicode="&#xe0;" 
d="M290 1485v136l171 -204v-137zM137 256v-154l-35 -34l-51 51v410l51 51l52 -51v-239zM316 546h-145l-52 51l52 52h145l51 -52zM649 68l-35 34v154l-17 34v239l52 51l51 -51v-410zM102 614l-51 52v409l51 51l35 -34v-153l17 -34v-239zM580 546h-145l-51 51l51 52h145
l51 -52zM649 614l-52 52v239l17 34v153l35 34l51 -51v-409zM580 1092h-409l-52 51l52 52h409l51 -52z" />
    <glyph glyph-name="acircumflex" unicode="&#xe2;" 
d="M375 1485l-170 -205v137l170 204l171 -204v-137zM137 256v-154l-35 -34l-51 51v410l51 51l52 -51v-239zM316 546h-145l-52 51l52 52h145l51 -52zM649 68l-35 34v154l-17 34v239l52 51l51 -51v-410zM102 614l-51 52v409l51 51l35 -34v-153l17 -34v-239zM580 546h-145
l-51 51l51 52h145l51 -52zM649 614l-52 52v239l17 34v153l35 34l51 -51v-409zM580 1092h-409l-52 51l52 52h409l51 -52z" />
    <glyph glyph-name="adieresis" unicode="&#xe4;" 
d="M256 1280l-51 51l51 51l51 -51zM495 1280l-51 51l51 51l51 -51zM137 256v-154l-35 -34l-51 51v410l51 51l52 -51v-239zM316 546h-145l-52 51l52 52h145l51 -52zM649 68l-35 34v154l-17 34v239l52 51l51 -51v-410zM102 614l-51 52v409l51 51l35 -34v-153l17 -34v-239z
M580 546h-145l-51 51l51 52h145l51 -52zM649 614l-52 52v239l17 34v153l35 34l51 -51v-409zM580 1092h-409l-52 51l52 52h409l51 -52z" />
    <glyph glyph-name="atilde" unicode="&#xe3;" 
d="M137 256v-154l-35 -34l-51 51v410l51 51l52 -51v-239zM316 546h-145l-52 51l52 52h145l51 -52zM649 68l-35 34v154l-17 34v239l52 51l51 -51v-410zM102 614l-51 52v409l51 51l35 -34v-153l17 -34v-239zM580 546h-145l-51 51l51 52h145l51 -52zM649 614l-52 52v239l17 34
v153l35 34l51 -51v-409zM580 1092h-409l-52 51l52 52h409l51 -52zM273 1280l-51 51l51 51l51 -51zM410 1280l-52 51l52 51l51 -51zM341 1348l-51 51l51 52l52 -52zM478 1348l-51 51l51 52l51 -52z" />
    <glyph glyph-name="aring" unicode="&#xe5;" 
d="M375 1297l-51 51l51 51l52 -51zM307 1365l-51 52l51 51l51 -51zM444 1365l-51 52l51 51l51 -51zM375 1434l-51 51l51 51l52 -51zM137 256v-154l-35 -34l-51 51v410l51 51l52 -51v-239zM316 546h-145l-52 51l52 52h145l51 -52zM649 68l-35 34v154l-17 34v239l52 51l51 -51
v-410zM102 614l-51 52v409l51 51l35 -34v-153l17 -34v-239zM580 546h-145l-51 51l51 52h145l51 -52zM649 614l-52 52v239l17 34v153l35 34l51 -51v-409zM580 1092h-409l-52 51l52 52h409l51 -52z" />
    <glyph glyph-name="eacute" unicode="&#xe9;" 
d="M580 0h-409l-52 51l52 51h409l51 -51zM137 256v-154l-35 -34l-51 51v410l51 51l52 -51v-239zM316 546h-145l-52 51l52 52h145l51 -52zM102 614l-51 52v409l51 51l35 -34v-153l17 -34v-239zM580 546h-145l-51 51l51 52h145l51 -52zM580 1092h-409l-52 51l52 52h409l51 -52
zM290 1280v137l171 204v-136z" />
    <glyph glyph-name="egrave" unicode="&#xe8;" 
d="M290 1485v136l171 -204v-137zM580 0h-409l-52 51l52 51h409l51 -51zM137 256v-154l-35 -34l-51 51v410l51 51l52 -51v-239zM316 546h-145l-52 51l52 52h145l51 -52zM102 614l-51 52v409l51 51l35 -34v-153l17 -34v-239zM580 546h-145l-51 51l51 52h145l51 -52zM580 1092
h-409l-52 51l52 52h409l51 -52z" />
    <glyph glyph-name="ecircumflex" unicode="&#xea;" 
d="M375 1485l-170 -205v137l170 204l171 -204v-137zM580 0h-409l-52 51l52 51h409l51 -51zM137 256v-154l-35 -34l-51 51v410l51 51l52 -51v-239zM316 546h-145l-52 51l52 52h145l51 -52zM102 614l-51 52v409l51 51l35 -34v-153l17 -34v-239zM580 546h-145l-51 51l51 52h145
l51 -52zM580 1092h-409l-52 51l52 52h409l51 -52z" />
    <glyph glyph-name="edieresis" unicode="&#xeb;" 
d="M256 1280l-51 51l51 51l51 -51zM495 1280l-51 51l51 51l51 -51zM580 0h-409l-52 51l52 51h409l51 -51zM137 256v-154l-35 -34l-51 51v410l51 51l52 -51v-239zM316 546h-145l-52 51l52 52h145l51 -52zM102 614l-51 52v409l51 51l35 -34v-153l17 -34v-239zM580 546h-145
l-51 51l51 52h145l51 -52zM580 1092h-409l-52 51l52 52h409l51 -52z" />
    <glyph glyph-name="iacute" unicode="&#xed;" 
d="M290 1280v137l171 204v-136zM324 119v239l17 35v153l34 34l35 -34v-153l17 -35v-239h-103zM410 802v-153l-35 -35l-34 35v153l-17 34v239h103v-239z" />
    <glyph glyph-name="igrave" unicode="&#xec;" 
d="M290 1485v136l171 -204v-137zM324 119v239l17 35v153l34 34l35 -34v-153l17 -35v-239h-103zM410 802v-153l-35 -35l-34 35v153l-17 34v239h103v-239z" />
    <glyph glyph-name="icircumflex" unicode="&#xee;" 
d="M375 1485l-170 -205v137l170 204l171 -204v-137zM324 119v239l17 35v153l34 34l35 -34v-153l17 -35v-239h-103zM410 802v-153l-35 -35l-34 35v153l-17 34v239h103v-239z" />
    <glyph glyph-name="idieresis" unicode="&#xef;" 
d="M256 1280l-51 51l51 51l51 -51zM495 1280l-51 51l51 51l51 -51zM324 119v239l17 35v153l34 34l35 -34v-153l17 -35v-239h-103zM410 802v-153l-35 -35l-34 35v153l-17 34v239h103v-239z" />
    <glyph glyph-name="ntilde" unicode="&#xf1;" 
d="M137 256v-154l-35 -34l-51 51v410l51 51l52 -51v-239zM649 68l-35 34v154l-17 34v239l52 51l51 -51v-410zM102 614l-51 52v409l51 51l35 -34v-153l17 -34v-239zM649 614l-52 52v239l17 34v153l35 34l51 -51v-409zM580 1092h-409l-52 51l52 52h409l51 -52zM273 1280
l-51 51l51 51l51 -51zM410 1280l-52 51l52 51l51 -51zM341 1348l-51 51l51 52l52 -52zM478 1348l-51 51l51 52l51 -52z" />
    <glyph glyph-name="oacute" unicode="&#xf3;" 
d="M580 0h-409l-52 51l52 51h409l51 -51zM137 256v-154l-35 -34l-51 51v410l51 51l52 -51v-239zM649 68l-35 34v154l-17 34v239l52 51l51 -51v-410zM102 614l-51 52v409l51 51l35 -34v-153l17 -34v-239zM649 614l-52 52v239l17 34v153l35 34l51 -51v-409zM580 1092h-409
l-52 51l52 52h409l51 -52zM290 1280v137l171 204v-136z" />
    <glyph glyph-name="ograve" unicode="&#xf2;" 
d="M290 1485v136l171 -204v-137zM580 0h-409l-52 51l52 51h409l51 -51zM137 256v-154l-35 -34l-51 51v410l51 51l52 -51v-239zM649 68l-35 34v154l-17 34v239l52 51l51 -51v-410zM102 614l-51 52v409l51 51l35 -34v-153l17 -34v-239zM649 614l-52 52v239l17 34v153l35 34
l51 -51v-409zM580 1092h-409l-52 51l52 52h409l51 -52z" />
    <glyph glyph-name="ocircumflex" unicode="&#xf4;" 
d="M375 1485l-170 -205v137l170 204l171 -204v-137zM580 0h-409l-52 51l52 51h409l51 -51zM137 256v-154l-35 -34l-51 51v410l51 51l52 -51v-239zM649 68l-35 34v154l-17 34v239l52 51l51 -51v-410zM102 614l-51 52v409l51 51l35 -34v-153l17 -34v-239zM649 614l-52 52v239
l17 34v153l35 34l51 -51v-409zM580 1092h-409l-52 51l52 52h409l51 -52z" />
    <glyph glyph-name="odieresis" unicode="&#xf6;" 
d="M256 1280l-51 51l51 51l51 -51zM495 1280l-51 51l51 51l51 -51zM580 0h-409l-52 51l52 51h409l51 -51zM137 256v-154l-35 -34l-51 51v410l51 51l52 -51v-239zM649 68l-35 34v154l-17 34v239l52 51l51 -51v-410zM102 614l-51 52v409l51 51l35 -34v-153l17 -34v-239z
M649 614l-52 52v239l17 34v153l35 34l51 -51v-409zM580 1092h-409l-52 51l52 52h409l51 -52z" />
    <glyph glyph-name="otilde" unicode="&#xf5;" 
d="M580 0h-409l-52 51l52 51h409l51 -51zM137 256v-154l-35 -34l-51 51v410l51 51l52 -51v-239zM649 68l-35 34v154l-17 34v239l52 51l51 -51v-410zM102 614l-51 52v409l51 51l35 -34v-153l17 -34v-239zM649 614l-52 52v239l17 34v153l35 34l51 -51v-409zM580 1092h-409
l-52 51l52 52h409l51 -52zM273 1280l-51 51l51 51l51 -51zM410 1280l-52 51l52 51l51 -51zM341 1348l-51 51l51 52l52 -52zM478 1348l-51 51l51 52l51 -52z" />
    <glyph glyph-name="uacute" unicode="&#xfa;" 
d="M580 0h-409l-52 51l52 51h409l51 -51zM137 256v-154l-35 -34l-51 51v410l51 51l52 -51v-239zM649 68l-35 34v154l-17 34v239l52 51l51 -51v-410zM102 614l-51 52v409l51 51l35 -34v-153l17 -34v-239zM649 614l-52 52v239l17 34v153l35 34l51 -51v-409zM290 1280v137
l171 204v-136z" />
    <glyph glyph-name="ugrave" unicode="&#xf9;" 
d="M290 1485v136l171 -204v-137zM580 0h-409l-52 51l52 51h409l51 -51zM137 256v-154l-35 -34l-51 51v410l51 51l52 -51v-239zM649 68l-35 34v154l-17 34v239l52 51l51 -51v-410zM102 614l-51 52v409l51 51l35 -34v-153l17 -34v-239zM649 614l-52 52v239l17 34v153l35 34
l51 -51v-409z" />
    <glyph glyph-name="ucircumflex" unicode="&#xfb;" 
d="M375 1485l-170 -205v137l170 204l171 -204v-137zM580 0h-409l-52 51l52 51h409l51 -51zM137 256v-154l-35 -34l-51 51v410l51 51l52 -51v-239zM649 68l-35 34v154l-17 34v239l52 51l51 -51v-410zM102 614l-51 52v409l51 51l35 -34v-153l17 -34v-239zM649 614l-52 52v239
l17 34v153l35 34l51 -51v-409z" />
    <glyph glyph-name="udieresis" unicode="&#xfc;" 
d="M256 1280l-51 51l51 51l51 -51zM495 1280l-51 51l51 51l51 -51zM580 0h-409l-52 51l52 51h409l51 -51zM137 256v-154l-35 -34l-51 51v410l51 51l52 -51v-239zM649 68l-35 34v154l-17 34v239l52 51l51 -51v-410zM102 614l-51 52v409l51 51l35 -34v-153l17 -34v-239z
M649 614l-52 52v239l17 34v153l35 34l51 -51v-409z" />
    <glyph glyph-name="degree" unicode="&#xb0;" 
d="M375 956l-51 51l51 51l52 -51zM307 1024l-51 51l51 51l51 -51zM444 1024l-51 51l51 51l51 -51zM375 1092l-51 51l51 52l52 -52z" />
    <glyph glyph-name="cent" unicode="&#xa2;" 
d="M316 546h-145l-52 51l52 52h145l51 -52zM375 410l-51 51v68l51 51l52 -51v-68zM102 614l-51 52v409l51 51l35 -34v-153l17 -34v-239zM580 546h-145l-51 51l51 52h145l51 -52zM410 802v-153l-35 -35l-34 35v153l-17 34v239h103v-239zM580 1092h-409l-52 51l52 52h409
l51 -52zM324 1212v68l51 51l52 -51v-68h-103z" />
    <glyph glyph-name="sterling" unicode="&#xa3;" 
d="M580 0h-409l-52 51l52 51h409l51 -51zM137 256v-154l-35 -34l-51 51v410l51 51l52 -51v-239zM316 546h-145l-52 51l52 52h145l51 -52zM102 614l-51 52v409l51 51l35 -34v-153l17 -34v-239zM580 1092h-409l-52 51l52 52h409l51 -52zM649 785l-52 51v69l17 34v153l35 34
l51 -51v-239z" />
    <glyph glyph-name="germandbls" unicode="&#xdf;" 
d="M102 -340l-51 52v273l51 49l52 -49v-273zM137 256v-154l-35 -34l-51 51v410l51 51l52 -51v-239zM580 0h-145l-51 51l51 51h145l51 -51zM649 68l-35 34v154l-17 34v239l52 51l51 -51v-410zM102 614l-51 52v409l51 51l35 -34v-153l17 -34v-239zM580 546h-145l-51 51l51 52
h145l51 -52zM649 614l-52 52v239l17 34v153l35 34l51 -51v-409zM580 1092h-409l-52 51l52 52h409l51 -52z" />
    <glyph glyph-name="registered" unicode="&#xae;" 
d="M137 256v-154l-35 -34l-51 51v410l51 51l52 -51v-239zM427 393v136l170 -273v-137zM316 546h-145l-52 51l52 52h145l51 -52zM102 614l-51 52v409l51 51l35 -34v-153l17 -34v-239zM580 546h-145l-51 51l51 52h145l51 -52zM649 614l-52 52v239l17 34v153l35 34l51 -51v-409
zM580 1092h-409l-52 51l52 52h409l51 -52z" />
    <glyph glyph-name="copyright" unicode="&#xa9;" 
d="M580 0h-409l-52 51l52 51h409l51 -51zM137 256v-154l-35 -34l-51 51v410l51 51l52 -51v-239zM102 614l-51 52v409l51 51l35 -34v-153l17 -34v-239zM580 1092h-409l-52 51l52 52h409l51 -52z" />
    <glyph glyph-name="acute" unicode="&#xb4;" 
d="M290 1280v137l171 204v-136z" />
    <glyph glyph-name="dieresis" unicode="&#xa8;" 
d="M256 1280l-51 51l51 51l51 -51zM495 1280l-51 51l51 51l51 -51z" />
    <glyph glyph-name="AE" unicode="&#xc6;" horiz-adv-x="1229" 
d="M137 256v-154l-35 -34l-51 51v410l51 51l52 -51v-239zM316 546h-145l-52 51l52 52h145l51 -52zM1126 0h-409l-51 51l51 51h409l52 -51zM649 68l-35 34v154l-17 34v239l52 51l51 -51v-410zM102 614l-51 52v409l51 51l35 -34v-153l17 -34v-239zM580 546h-145l-51 51l51 52
h145l51 -52zM862 546h-145l-51 51l51 52h145l51 -52zM649 614l-52 52v239l17 34v153l35 34l51 -51v-409zM580 1092h-409l-52 51l52 52h409l51 -52zM1126 546h-145l-51 51l51 52h145l52 -52zM1126 1092h-409l-51 51l51 52h409l52 -52z" />
    <glyph glyph-name="Oslash" unicode="&#xd8;" 
d="M580 0h-409l-52 51l52 51h409l51 -51zM137 256v-154l-35 -34l-51 51v410l51 51l52 -51v-239zM154 119v137l170 273v-136zM649 68l-35 34v154l-17 34v239l52 51l51 -51v-410zM102 614l-51 52v409l51 51l35 -34v-153l17 -34v-239zM427 666v136l170 273v-136zM649 614
l-52 52v239l17 34v153l35 34l51 -51v-409zM580 1092h-409l-52 51l52 52h409l51 -52z" />
    <glyph glyph-name="plusminus" unicode="&#xb1;" 
d="M580 0h-409l-52 51l52 51h409l51 -51zM324 119v239l17 35v153l34 34l35 -34v-153l17 -35v-239h-103zM316 546h-145l-52 51l52 52h145l51 -52zM580 546h-145l-51 51l51 52h145l51 -52zM410 802v-153l-35 -35l-34 35v153l-17 34v239h103v-239z" />
    <glyph glyph-name="yen" unicode="&#xa5;" 
d="M324 119v239l17 35v153l34 34l35 -34v-153l17 -35v-239h-103zM316 546h-145l-52 51l52 52h145l51 -52zM102 614l-51 52v409l51 51l35 -34v-153l17 -34v-239zM580 546h-145l-51 51l51 52h145l51 -52zM649 614l-52 52v239l17 34v153l35 34l51 -51v-409z" />
    <glyph glyph-name="ae" unicode="&#xe6;" horiz-adv-x="1229" 
d="M137 256v-154l-35 -34l-51 51v410l51 51l52 -51v-239zM316 546h-145l-52 51l52 52h145l51 -52zM1126 0h-409l-51 51l51 51h409l52 -51zM649 68l-35 34v154l-17 34v239l52 51l51 -51v-410zM102 614l-51 52v409l51 51l35 -34v-153l17 -34v-239zM580 546h-145l-51 51l51 52
h145l51 -52zM862 546h-145l-51 51l51 52h145l51 -52zM649 614l-52 52v239l17 34v153l35 34l51 -51v-409zM580 1092h-409l-52 51l52 52h409l51 -52zM1126 546h-145l-51 51l51 52h145l52 -52zM1126 1092h-409l-51 51l51 52h409l52 -52z" />
    <glyph glyph-name="oslash" unicode="&#xf8;" 
d="M580 0h-409l-52 51l52 51h409l51 -51zM137 256v-154l-35 -34l-51 51v410l51 51l52 -51v-239zM154 119v137l170 273v-136zM649 68l-35 34v154l-17 34v239l52 51l51 -51v-410zM102 614l-51 52v409l51 51l35 -34v-153l17 -34v-239zM427 666v136l170 273v-136zM649 614
l-52 52v239l17 34v153l35 34l51 -51v-409zM580 1092h-409l-52 51l52 52h409l51 -52z" />
    <glyph glyph-name="questiondown" unicode="&#xbf;" 
d="M649 0h-410l-51 51l51 51h410l51 -51zM205 256v-154l-34 -34l-52 51v410l52 51l51 -51v-239zM384 546h-145l-51 51l51 52h145l51 -52zM478 802v-153l-34 -35l-34 35v153l-17 34v103h102v-103zM393 1075v68l51 52l51 -52v-68h-102z" />
    <glyph glyph-name="exclamdown" unicode="&#xa1;" 
d="M324 119v239l17 35v153l34 34l35 -34v-153l17 -35v-239h-103zM410 802v-153l-35 -35l-34 35v153l-17 34v103h103v-103zM324 1075v68l51 52l52 -52v-68h-103z" />
    <glyph glyph-name="guillemotleft" unicode="&#xab;" 
d="M119 393v136l171 -273v-137zM461 393v136l170 -273v-137zM119 666v136l171 273v-136zM461 666v136l170 273v-136z" />
    <glyph glyph-name="guillemotright" unicode="&#xbb;" 
d="M119 119v137l171 273v-136zM461 119v137l170 273v-136zM119 939v136l171 -273v-136zM461 939v136l170 -273v-136z" />
    <glyph glyph-name="ellipsis" unicode="&#x85;" 
d="M205 0l-51 51l51 51l51 -51zM375 0l-51 51l51 51l52 -51zM546 0l-51 51l51 51l51 -51z" />
    <glyph glyph-name="ellipsis" unicode="&#x2026;" 
d="M205 0l-51 51l51 51l51 -51zM375 0l-51 51l51 51l52 -51zM546 0l-51 51l51 51l51 -51z" />
    <glyph glyph-name="Agrave" unicode="&#xc0;" 
d="M137 256v-154l-35 -34l-51 51v410l51 51l52 -51v-239zM316 546h-145l-52 51l52 52h145l51 -52zM649 68l-35 34v154l-17 34v239l52 51l51 -51v-410zM102 614l-51 52v409l51 51l35 -34v-153l17 -34v-239zM580 546h-145l-51 51l51 52h145l51 -52zM649 614l-52 52v239l17 34
v153l35 34l51 -51v-409zM580 1092h-409l-52 51l52 52h409l51 -52zM290 1485v136l171 -204v-137z" />
    <glyph glyph-name="Atilde" unicode="&#xc3;" 
d="M273 1280l-51 51l51 51l51 -51zM410 1280l-52 51l52 51l51 -51zM341 1348l-51 51l51 52l52 -52zM478 1348l-51 51l51 52l51 -52zM137 256v-154l-35 -34l-51 51v410l51 51l52 -51v-239zM316 546h-145l-52 51l52 52h145l51 -52zM649 68l-35 34v154l-17 34v239l52 51l51 -51
v-410zM102 614l-51 52v409l51 51l35 -34v-153l17 -34v-239zM580 546h-145l-51 51l51 52h145l51 -52zM649 614l-52 52v239l17 34v153l35 34l51 -51v-409zM580 1092h-409l-52 51l52 52h409l51 -52z" />
    <glyph glyph-name="Otilde" unicode="&#xd5;" 
d="M580 0h-409l-52 51l52 51h409l51 -51zM137 256v-154l-35 -34l-51 51v410l51 51l52 -51v-239zM649 68l-35 34v154l-17 34v239l52 51l51 -51v-410zM102 614l-51 52v409l51 51l35 -34v-153l17 -34v-239zM649 614l-52 52v239l17 34v153l35 34l51 -51v-409zM580 1092h-409
l-52 51l52 52h409l51 -52zM273 1280l-51 51l51 51l51 -51zM410 1280l-52 51l52 51l51 -51zM341 1348l-51 51l51 52l52 -52zM478 1348l-51 51l51 52l51 -52z" />
    <glyph glyph-name="OE" horiz-adv-x="1229" 
d="M580 0h-409l-52 51l52 51h409l51 -51zM137 256v-154l-35 -34l-51 51v410l51 51l52 -51v-239zM1126 0h-409l-51 51l51 51h409l52 -51zM649 68l-35 34v154l-17 34v239l52 51l51 -51v-410zM102 614l-51 52v409l51 51l35 -34v-153l17 -34v-239zM862 546h-145l-51 51l51 52
h145l51 -52zM649 614l-52 52v239l17 34v153l35 34l51 -51v-409zM580 1092h-409l-52 51l52 52h409l51 -52zM1126 546h-145l-51 51l51 52h145l52 -52zM1126 1092h-409l-51 51l51 52h409l52 -52z" />
    <glyph glyph-name="OE" unicode="&#x152;" horiz-adv-x="1229" 
d="M580 0h-409l-52 51l52 51h409l51 -51zM137 256v-154l-35 -34l-51 51v410l51 51l52 -51v-239zM1126 0h-409l-51 51l51 51h409l52 -51zM649 68l-35 34v154l-17 34v239l52 51l51 -51v-410zM102 614l-51 52v409l51 51l35 -34v-153l17 -34v-239zM862 546h-145l-51 51l51 52
h145l51 -52zM649 614l-52 52v239l17 34v153l35 34l51 -51v-409zM580 1092h-409l-52 51l52 52h409l51 -52zM1126 546h-145l-51 51l51 52h145l52 -52zM1126 1092h-409l-51 51l51 52h409l52 -52z" />
    <glyph glyph-name="oe" horiz-adv-x="1229" 
d="M580 0h-409l-52 51l52 51h409l51 -51zM137 256v-154l-35 -34l-51 51v410l51 51l52 -51v-239zM1126 0h-409l-51 51l51 51h409l52 -51zM649 68l-35 34v154l-17 34v239l52 51l51 -51v-410zM102 614l-51 52v409l51 51l35 -34v-153l17 -34v-239zM862 546h-145l-51 51l51 52
h145l51 -52zM649 614l-52 52v239l17 34v153l35 34l51 -51v-409zM580 1092h-409l-52 51l52 52h409l51 -52zM1126 546h-145l-51 51l51 52h145l52 -52zM1126 1092h-409l-51 51l51 52h409l52 -52z" />
    <glyph glyph-name="oe" unicode="&#x153;" horiz-adv-x="1229" 
d="M580 0h-409l-52 51l52 51h409l51 -51zM137 256v-154l-35 -34l-51 51v410l51 51l52 -51v-239zM1126 0h-409l-51 51l51 51h409l52 -51zM649 68l-35 34v154l-17 34v239l52 51l51 -51v-410zM102 614l-51 52v409l51 51l35 -34v-153l17 -34v-239zM862 546h-145l-51 51l51 52
h145l51 -52zM649 614l-52 52v239l17 34v153l35 34l51 -51v-409zM580 1092h-409l-52 51l52 52h409l51 -52zM1126 546h-145l-51 51l51 52h145l52 -52zM1126 1092h-409l-51 51l51 52h409l52 -52z" />
    <glyph glyph-name="endash" 
d="M316 546h-145l-52 51l52 52h145l51 -52z" />
    <glyph glyph-name="endash" unicode="&#x2013;" 
d="M316 546h-145l-52 51l52 52h145l51 -52z" />
    <glyph glyph-name="emdash" 
d="M316 546h-145l-52 51l52 52h145l51 -52zM580 546h-145l-51 51l51 52h145l51 -52z" />
    <glyph glyph-name="emdash" unicode="&#x2014;" 
d="M316 546h-145l-52 51l52 52h145l51 -52zM580 546h-145l-51 51l51 52h145l51 -52z" />
    <glyph glyph-name="quotedblleft" 
d="M316 990l-51 51v102l51 52l51 -52v-102zM435 990l-51 51v102l51 52l51 -52v-102z" />
    <glyph glyph-name="quotedblleft" unicode="&#x201c;" 
d="M316 990l-51 51v102l51 52l51 -52v-102zM435 990l-51 51v102l51 52l51 -52v-102z" />
    <glyph glyph-name="quotedblright" 
d="M316 990l-51 51v102l51 52l51 -52v-102zM435 990l-51 51v102l51 52l51 -52v-102z" />
    <glyph glyph-name="quotedblright" unicode="&#x201d;" 
d="M316 990l-51 51v102l51 52l51 -52v-102zM435 990l-51 51v102l51 52l51 -52v-102z" />
    <glyph glyph-name="quoteleft" 
d="M375 990l-51 51v102l51 52l52 -52v-102z" />
    <glyph glyph-name="quoteleft" unicode="&#x2018;" 
d="M375 990l-51 51v102l51 52l52 -52v-102z" />
    <glyph glyph-name="quoteright" 
d="M375 990l-51 51v102l51 52l52 -52v-102z" />
    <glyph glyph-name="quoteright" unicode="&#x2019;" 
d="M375 990l-51 51v102l51 52l52 -52v-102z" />
    <glyph glyph-name="divide" unicode="&#xf7;" 
d="M324 375v69l51 51l52 -51v-69h-103zM316 546h-145l-52 51l52 52h145l51 -52zM580 546h-145l-51 51l51 52h145l51 -52zM375 700l-51 51v68h103v-68z" />
    <glyph glyph-name="ydieresis" unicode="&#xff;" 
d="M324 119v239l17 35v153l34 34l35 -34v-153l17 -35v-239h-103zM316 546h-145l-52 51l52 52h145l51 -52zM102 614l-51 52v409l51 51l35 -34v-153l17 -34v-239zM580 546h-145l-51 51l51 52h145l51 -52zM649 614l-52 52v239l17 34v153l35 34l51 -51v-409zM256 1280l-51 51
l51 51l51 -51zM495 1280l-51 51l51 51l51 -51z" />
    <glyph glyph-name="Ydieresis" 
d="M256 1280l-51 51l51 51l51 -51zM495 1280l-51 51l51 51l51 -51zM324 119v239l17 35v153l34 34l35 -34v-153l17 -35v-239h-103zM316 546h-145l-52 51l52 52h145l51 -52zM102 614l-51 52v409l51 51l35 -34v-153l17 -34v-239zM580 546h-145l-51 51l51 52h145l51 -52z
M649 614l-52 52v239l17 34v153l35 34l51 -51v-409z" />
    <glyph glyph-name="Ydieresis" unicode="&#x178;" 
d="M256 1280l-51 51l51 51l51 -51zM495 1280l-51 51l51 51l51 -51zM324 119v239l17 35v153l34 34l35 -34v-153l17 -35v-239h-103zM316 546h-145l-52 51l52 52h145l51 -52zM102 614l-51 52v409l51 51l35 -34v-153l17 -34v-239zM580 546h-145l-51 51l51 52h145l51 -52z
M649 614l-52 52v239l17 34v153l35 34l51 -51v-409z" />
    <glyph glyph-name="guilsinglleft" 
d="M290 393v136l171 -273v-137zM290 666v136l171 273v-136z" />
    <glyph glyph-name="guilsinglleft" unicode="&#x2039;" 
d="M290 393v136l171 -273v-137zM290 666v136l171 273v-136z" />
    <glyph glyph-name="guilsinglright" 
d="M290 119v137l171 273v-136zM290 939v136l171 -273v-136z" />
    <glyph glyph-name="guilsinglright" unicode="&#x203a;" 
d="M290 119v137l171 273v-136zM290 939v136l171 -273v-136z" />
    <glyph glyph-name="quotesinglbase" 
d="M375 -101l-51 52v100l51 51l52 -51v-100z" />
    <glyph glyph-name="quotesinglbase" unicode="&#x201a;" 
d="M375 -101l-51 52v100l51 51l52 -51v-100z" />
    <glyph glyph-name="quotedblbase" 
d="M316 -101l-51 52v100l51 51l51 -51v-100zM435 -101l-51 52v100l51 51l51 -51v-100z" />
    <glyph glyph-name="quotedblbase" unicode="&#x201e;" 
d="M316 -101l-51 52v100l51 51l51 -51v-100zM435 -101l-51 52v100l51 51l51 -51v-100z" />
    <glyph glyph-name="perthousand" 
d="M324 0l-51 51l51 51l51 -51zM256 68l-51 51l51 52l51 -52zM393 68l-52 51l52 52l51 -52zM324 137l-51 51l51 51l51 -51zM154 119v137l170 273v-136zM597 0l-51 51l51 51l52 -51zM529 68l-51 51l51 52l51 -52zM666 68l-52 51l52 52l51 -52zM597 137l-51 51l51 51l52 -51z
M256 956l-51 51l51 51l51 -51zM188 1024l-51 51l51 51l51 -51zM427 666v136l170 273v-136zM324 1024l-51 51l51 51l51 -51zM256 1092l-51 51l51 52l51 -52z" />
    <glyph glyph-name="perthousand" unicode="&#x2030;" 
d="M324 0l-51 51l51 51l51 -51zM256 68l-51 51l51 52l51 -52zM393 68l-52 51l52 52l51 -52zM324 137l-51 51l51 51l51 -51zM154 119v137l170 273v-136zM597 0l-51 51l51 51l52 -51zM529 68l-51 51l51 52l51 -52zM666 68l-52 51l52 52l51 -52zM597 137l-51 51l51 51l52 -51z
M256 956l-51 51l51 51l51 -51zM188 1024l-51 51l51 51l51 -51zM427 666v136l170 273v-136zM324 1024l-51 51l51 51l51 -51zM256 1092l-51 51l51 52l51 -52z" />
    <glyph glyph-name="Acircumflex" unicode="&#xc2;" 
d="M137 256v-154l-35 -34l-51 51v410l51 51l52 -51v-239zM316 546h-145l-52 51l52 52h145l51 -52zM649 68l-35 34v154l-17 34v239l52 51l51 -51v-410zM102 614l-51 52v409l51 51l35 -34v-153l17 -34v-239zM580 546h-145l-51 51l51 52h145l51 -52zM649 614l-52 52v239l17 34
v153l35 34l51 -51v-409zM580 1092h-409l-52 51l52 52h409l51 -52zM375 1485l-170 -205v137l170 204l171 -204v-137z" />
    <glyph glyph-name="Ecircumflex" unicode="&#xca;" 
d="M375 1485l-170 -205v137l170 204l171 -204v-137zM580 0h-409l-52 51l52 51h409l51 -51zM137 256v-154l-35 -34l-51 51v410l51 51l52 -51v-239zM316 546h-145l-52 51l52 52h145l51 -52zM102 614l-51 52v409l51 51l35 -34v-153l17 -34v-239zM580 546h-145l-51 51l51 52h145
l51 -52zM580 1092h-409l-52 51l52 52h409l51 -52z" />
    <glyph glyph-name="Aacute" unicode="&#xc1;" 
d="M290 1280v137l171 204v-136zM137 256v-154l-35 -34l-51 51v410l51 51l52 -51v-239zM316 546h-145l-52 51l52 52h145l51 -52zM649 68l-35 34v154l-17 34v239l52 51l51 -51v-410zM102 614l-51 52v409l51 51l35 -34v-153l17 -34v-239zM580 546h-145l-51 51l51 52h145l51 -52
zM649 614l-52 52v239l17 34v153l35 34l51 -51v-409zM580 1092h-409l-52 51l52 52h409l51 -52z" />
    <glyph glyph-name="Edieresis" unicode="&#xcb;" 
d="M580 0h-409l-52 51l52 51h409l51 -51zM137 256v-154l-35 -34l-51 51v410l51 51l52 -51v-239zM316 546h-145l-52 51l52 52h145l51 -52zM102 614l-51 52v409l51 51l35 -34v-153l17 -34v-239zM580 546h-145l-51 51l51 52h145l51 -52zM580 1092h-409l-52 51l52 52h409l51 -52
zM256 1280l-51 51l51 51l51 -51zM495 1280l-51 51l51 51l51 -51z" />
    <glyph glyph-name="Egrave" unicode="&#xc8;" 
d="M290 1485v136l171 -204v-137zM580 0h-409l-52 51l52 51h409l51 -51zM137 256v-154l-35 -34l-51 51v410l51 51l52 -51v-239zM316 546h-145l-52 51l52 52h145l51 -52zM102 614l-51 52v409l51 51l35 -34v-153l17 -34v-239zM580 546h-145l-51 51l51 52h145l51 -52zM580 1092
h-409l-52 51l52 52h409l51 -52z" />
    <glyph glyph-name="Iacute" unicode="&#xcd;" 
d="M324 119v239l17 35v153l34 34l35 -34v-153l17 -35v-239h-103zM410 802v-153l-35 -35l-34 35v153l-17 34v239h103v-239zM290 1280v137l171 204v-136z" />
    <glyph glyph-name="Icircumflex" unicode="&#xce;" 
d="M375 1485l-170 -205v137l170 204l171 -204v-137zM324 119v239l17 35v153l34 34l35 -34v-153l17 -35v-239h-103zM410 802v-153l-35 -35l-34 35v153l-17 34v239h103v-239z" />
    <glyph glyph-name="Idieresis" unicode="&#xcf;" 
d="M256 1280l-51 51l51 51l51 -51zM495 1280l-51 51l51 51l51 -51zM324 119v239l17 35v153l34 34l35 -34v-153l17 -35v-239h-103zM410 802v-153l-35 -35l-34 35v153l-17 34v239h103v-239z" />
    <glyph glyph-name="Igrave" unicode="&#xcc;" 
d="M290 1485v136l171 -204v-137zM324 119v239l17 35v153l34 34l35 -34v-153l17 -35v-239h-103zM410 802v-153l-35 -35l-34 35v153l-17 34v239h103v-239z" />
    <glyph glyph-name="Oacute" unicode="&#xd3;" 
d="M290 1280v137l171 204v-136zM580 0h-409l-52 51l52 51h409l51 -51zM137 256v-154l-35 -34l-51 51v410l51 51l52 -51v-239zM649 68l-35 34v154l-17 34v239l52 51l51 -51v-410zM102 614l-51 52v409l51 51l35 -34v-153l17 -34v-239zM649 614l-52 52v239l17 34v153l35 34
l51 -51v-409zM580 1092h-409l-52 51l52 52h409l51 -52z" />
    <glyph glyph-name="Ocircumflex" unicode="&#xd4;" 
d="M375 1485l-170 -205v137l170 204l171 -204v-137zM580 0h-409l-52 51l52 51h409l51 -51zM137 256v-154l-35 -34l-51 51v410l51 51l52 -51v-239zM649 68l-35 34v154l-17 34v239l52 51l51 -51v-410zM102 614l-51 52v409l51 51l35 -34v-153l17 -34v-239zM649 614l-52 52v239
l17 34v153l35 34l51 -51v-409zM580 1092h-409l-52 51l52 52h409l51 -52z" />
    <glyph glyph-name="Ograve" unicode="&#xd2;" 
d="M290 1485v136l171 -204v-137zM580 0h-409l-52 51l52 51h409l51 -51zM137 256v-154l-35 -34l-51 51v410l51 51l52 -51v-239zM649 68l-35 34v154l-17 34v239l52 51l51 -51v-410zM102 614l-51 52v409l51 51l35 -34v-153l17 -34v-239zM649 614l-52 52v239l17 34v153l35 34
l51 -51v-409zM580 1092h-409l-52 51l52 52h409l51 -52z" />
    <glyph glyph-name="Uacute" unicode="&#xda;" 
d="M580 0h-409l-52 51l52 51h409l51 -51zM137 256v-154l-35 -34l-51 51v410l51 51l52 -51v-239zM649 68l-35 34v154l-17 34v239l52 51l51 -51v-410zM102 614l-51 52v409l51 51l35 -34v-153l17 -34v-239zM649 614l-52 52v239l17 34v153l35 34l51 -51v-409zM290 1280v137
l171 204v-136z" />
    <glyph glyph-name="Ucircumflex" unicode="&#xdb;" 
d="M375 1485l-170 -205v137l170 204l171 -204v-137zM580 0h-409l-52 51l52 51h409l51 -51zM137 256v-154l-35 -34l-51 51v410l51 51l52 -51v-239zM649 68l-35 34v154l-17 34v239l52 51l51 -51v-410zM102 614l-51 52v409l51 51l35 -34v-153l17 -34v-239zM649 614l-52 52v239
l17 34v153l35 34l51 -51v-409z" />
    <glyph glyph-name="Ugrave" unicode="&#xd9;" 
d="M290 1485v136l171 -204v-137zM580 0h-409l-52 51l52 51h409l51 -51zM137 256v-154l-35 -34l-51 51v410l51 51l52 -51v-239zM649 68l-35 34v154l-17 34v239l52 51l51 -51v-410zM102 614l-51 52v409l51 51l35 -34v-153l17 -34v-239zM649 614l-52 52v239l17 34v153l35 34
l51 -51v-409z" />
    <glyph glyph-name="circumflex" 
d="M375 1485l-170 -205v137l170 204l171 -204v-137z" />
    <glyph glyph-name="circumflex" unicode="&#x2c6;" 
d="M375 1485l-170 -205v137l170 204l171 -204v-137z" />
    <glyph glyph-name="tilde" 
d="M273 1280l-51 51l51 51l51 -51zM410 1280l-52 51l52 51l51 -51zM341 1348l-51 51l51 52l52 -52zM478 1348l-51 51l51 52l51 -52z" />
    <glyph glyph-name="tilde" unicode="&#x2dc;" 
d="M273 1280l-51 51l51 51l51 -51zM410 1280l-52 51l52 51l51 -51zM341 1348l-51 51l51 52l52 -52zM478 1348l-51 51l51 52l51 -52z" />
    <glyph glyph-name="ring" unicode="&#x2da;" 
d="M375 1297l-51 51l51 51l52 -51zM307 1365l-51 52l51 51l51 -51zM444 1365l-51 52l51 51l51 -51zM375 1434l-51 51l51 51l52 -51z" />
    <glyph glyph-name="caron" unicode="&#x2c7;" 
d="M375 1280l-170 205v136l170 -204l171 204v-136z" />
    <glyph glyph-name="nonbreakingspace" unicode="&#xa0;" 
 />
    <glyph glyph-name="numbersign" unicode="#" 
d="M256 512l-51 51v103l51 51l51 -51v-103zM188 683h-103l-51 51l51 51h103l51 -51zM495 512l-51 51v103l51 51l51 -51v-103zM427 683h-103l-51 51l51 51h103l51 -51zM256 751l-51 51v103l51 51l51 -51v-103zM188 922h-103l-51 51l51 51h103l51 -51zM666 683h-103l-51 51
l51 51h103l51 -51zM495 751l-51 51v103l51 51l51 -51v-103zM427 922h-103l-51 51l51 51h103l51 -51zM256 990l-51 51v102l51 52l51 -52v-102zM666 922h-103l-51 51l51 51h103l51 -51zM495 990l-51 51v102l51 52l51 -52v-102z" />
    <glyph glyph-name="exclam" unicode="!" 
d="M375 0l-51 51v68h103v-68zM324 256v102l17 35v153l34 34l35 -34v-153l17 -35v-102h-103zM410 802v-153l-35 -35l-34 35v153l-17 34v239h103v-239z" />
    <glyph glyph-name="quotedbl" unicode="&#x22;" 
d="M316 990l-51 51v102l51 52l51 -52v-102zM435 990l-51 51v102l51 52l51 -52v-102z" />
    <glyph glyph-name=".null" horiz-adv-x="0" 
 />
    <glyph glyph-name="nonmarkingreturn" 
 />
    <glyph glyph-name="Scaron" 
d="M580 0h-409l-52 51l52 51h409l51 -51zM316 546h-145l-52 51l52 52h145l51 -52zM649 68l-35 34v154l-17 34v239l52 51l51 -51v-410zM102 614l-51 52v409l51 51l35 -34v-153l17 -34v-239zM580 546h-145l-51 51l51 52h145l51 -52zM580 1092h-409l-52 51l52 52h409l51 -52z
M375 1280l-170 205v136l170 -204l171 204v-136z" />
    <glyph glyph-name="Scaron" unicode="&#x160;" 
d="M580 0h-409l-52 51l52 51h409l51 -51zM316 546h-145l-52 51l52 52h145l51 -52zM649 68l-35 34v154l-17 34v239l52 51l51 -51v-410zM102 614l-51 52v409l51 51l35 -34v-153l17 -34v-239zM580 546h-145l-51 51l51 52h145l51 -52zM580 1092h-409l-52 51l52 52h409l51 -52z
M375 1280l-170 205v136l170 -204l171 204v-136z" />
    <glyph glyph-name="scaron" 
d="M375 1280l-170 205v136l170 -204l171 204v-136zM580 0h-409l-52 51l52 51h409l51 -51zM316 546h-145l-52 51l52 52h145l51 -52zM649 68l-35 34v154l-17 34v239l52 51l51 -51v-410zM102 614l-51 52v409l51 51l35 -34v-153l17 -34v-239zM580 546h-145l-51 51l51 52h145
l51 -52zM580 1092h-409l-52 51l52 52h409l51 -52z" />
    <glyph glyph-name="scaron" unicode="&#x161;" 
d="M375 1280l-170 205v136l170 -204l171 204v-136zM580 0h-409l-52 51l52 51h409l51 -51zM316 546h-145l-52 51l52 52h145l51 -52zM649 68l-35 34v154l-17 34v239l52 51l51 -51v-410zM102 614l-51 52v409l51 51l35 -34v-153l17 -34v-239zM580 546h-145l-51 51l51 52h145
l51 -52zM580 1092h-409l-52 51l52 52h409l51 -52z" />
    <glyph glyph-name="brokenbar" unicode="&#xa6;" horiz-adv-x="205" 
d="M51 119v239l17 35v153l34 34l35 -34v-153l17 -35v-239h-103zM137 802v-153l-35 -35l-34 35v153l-17 34v239h103v-239z" />
    <glyph glyph-name="Yacute" unicode="&#xdd;" 
d="M324 119v239l17 35v153l34 34l35 -34v-153l17 -35v-239h-103zM316 546h-145l-52 51l52 52h145l51 -52zM102 614l-51 52v409l51 51l35 -34v-153l17 -34v-239zM580 546h-145l-51 51l51 52h145l51 -52zM649 614l-52 52v239l17 34v153l35 34l51 -51v-409zM290 1280v137
l171 204v-136z" />
    <glyph glyph-name="yacute" unicode="&#xfd;" 
d="M290 1280v137l171 204v-136zM324 119v239l17 35v153l34 34l35 -34v-153l17 -35v-239h-103zM316 546h-145l-52 51l52 52h145l51 -52zM102 614l-51 52v409l51 51l35 -34v-153l17 -34v-239zM580 546h-145l-51 51l51 52h145l51 -52zM649 614l-52 52v239l17 34v153l35 34
l51 -51v-409z" />
    <glyph glyph-name="Thorn" unicode="&#xde;" 
d="M102 -340l-51 52v273l51 49l52 -49v-273zM580 0h-409l-52 51l52 51h409l51 -51zM137 256v-154l-35 -34l-51 51v410l51 51l52 -51v-239zM316 546h-145l-52 51l52 52h145l51 -52zM649 68l-35 34v154l-17 34v239l52 51l51 -51v-410zM102 614l-51 52v409l51 51l35 -34v-153
l17 -34v-239zM580 546h-145l-51 51l51 52h145l51 -52z" />
    <glyph glyph-name="thorn" unicode="&#xfe;" 
d="M102 -340l-51 52v273l51 49l52 -49v-273zM580 0h-409l-52 51l52 51h409l51 -51zM137 256v-154l-35 -34l-51 51v410l51 51l52 -51v-239zM316 546h-145l-52 51l52 52h145l51 -52zM649 68l-35 34v154l-17 34v239l52 51l51 -51v-410zM102 614l-51 52v409l51 51l35 -34v-153
l17 -34v-239zM580 546h-145l-51 51l51 52h145l51 -52z" />
    <glyph glyph-name="minus" unicode="&#xad;" 
d="M316 546h-145l-52 51l52 52h145l51 -52zM580 546h-145l-51 51l51 52h145l51 -52z" />
    <glyph glyph-name="multiply" unicode="&#xd7;" 
d="M154 119v137l170 273v-136zM427 393v136l170 -273v-137zM154 939v136l170 -273v-136zM427 666v136l170 273v-136z" />
    <glyph glyph-name="euro" unicode="&#x20ac;" 
d="M580 0h-409l-52 51l52 51h409l51 -51zM137 256v-154l-35 -34l-51 51v410l51 51l52 -51v-239zM290 375h-102v103h102l51 -51zM102 614l-51 52v409l51 51l35 -34v-153l17 -34v-239zM393 717h-205v102h205l51 -51zM580 1092h-409l-52 51l52 52h409l51 -52z" />
  </font>
</defs>
</svg>
